<?xml version="1.0" encoding="utf-8"?>
<!-- Generator: Adobe Illustrator 17.0.1, SVG Export Plug-In . SVG Version: 6.00 Build 0)  -->
<!DOCTYPE svg PUBLIC "-//W3C//DTD SVG 1.1//EN" "http://www.w3.org/Graphics/SVG/1.1/DTD/svg11.dtd">
<svg version="1.1" id="Слой_1" xmlns="http://www.w3.org/2000/svg" xmlns:xlink="http://www.w3.org/1999/xlink" x="0px" y="0px"
	 width="39px" height="74px" viewBox="0 0 39 74" enable-background="new 0 0 39 74" xml:space="preserve">
<g>
	<path fill="#8DC3E0" d="M19.499,0.283C8.85,0.283,0.185,8.943,0.185,19.588v19.334c0,10.644,8.665,19.305,19.314,19.305
		c10.651,0,19.316-8.659,19.316-19.305V19.588C38.815,8.943,30.15,0.283,19.499,0.283L19.499,0.283z M36.669,38.922
		c0,9.462-7.702,17.159-17.17,17.159c-9.466,0-17.168-7.697-17.168-17.159V19.588c0-9.461,7.702-17.159,17.168-17.159
		c9.468,0,17.17,7.698,17.17,17.159V38.922z M36.669,38.922"/>
	<path fill="#8DC3E0" d="M19.499,6.721c-0.591,0-1.073,0.48-1.073,1.073v9.718c0,0.593,0.482,1.073,1.073,1.073
		c0.593,0,1.073-0.48,1.073-1.073V7.794C20.572,7.201,20.092,6.721,19.499,6.721L19.499,6.721z M19.499,6.721"/>
</g>
<polygon fill="#8DC3E0" points="28.674,64.194 19.5,73.717 10.326,64.194 "/>
</svg>
