<?xml version="1.0" encoding="utf-8"?>
<!-- Generator: Adobe Illustrator 17.0.1, SVG Export Plug-In . SVG Version: 6.00 Build 0)  -->
<!DOCTYPE svg PUBLIC "-//W3C//DTD SVG 1.1//EN" "http://www.w3.org/Graphics/SVG/1.1/DTD/svg11.dtd">
<svg version="1.1" id="Слой_1" xmlns="http://www.w3.org/2000/svg" xmlns:xlink="http://www.w3.org/1999/xlink" x="0px" y="0px"
	 width="226px" height="59px" viewBox="0 0 226 59" enable-background="new 0 0 226 59" xml:space="preserve">
<g>
	<g opacity="0.3">
		<path fill="#4D4D4D" d="M31.792,19.101c2.697,0,4.331,0.034,4.9,0.099c0.952,0.114,1.672,0.447,2.157,1.001
			c0.485,0.538,0.732,1.259,0.732,2.131c0,0.918-0.281,1.661-0.842,2.218c-0.561,0.565-1.334,0.899-2.32,1.02
			c-0.542,0.064-1.93,0.099-4.161,0.099h-3.757v-6.566H31.792z M45.145,30.255c-0.929-1.213-2.252-2.073-3.985-2.574
			c1.232-0.557,2.199-1.391,2.912-2.502c0.717-1.103,1.073-2.328,1.073-3.658c0-1.224-0.281-2.331-0.868-3.321
			c-0.576-0.986-1.308-1.774-2.176-2.366c-0.872-0.599-1.858-0.986-2.965-1.175c-0.781-0.133-1.876-0.216-3.245-0.254v-4.202H31.17
			v4.176h-2.669h-0.315v-4.176h-4.725v4.176h-0.69h-4.35v4.724h4.35v18.936h-4.35v4.72h4.35h0.69v3.87h4.725v-3.87h0.315h2.669v3.87
			h4.722v-3.912c1.668-0.038,2.855-0.083,3.45-0.148c1.52-0.17,2.805-0.614,3.84-1.346c1.047-0.728,1.861-1.702,2.464-2.923
			c0.595-1.224,0.899-2.476,0.899-3.764C46.545,32.897,46.078,31.472,45.145,30.255z M39.819,36.673
			c-0.538,0.599-1.224,0.978-2.081,1.134c-0.554,0.114-1.861,0.174-3.933,0.174h-5.304v-7.597h4.627
			c2.612,0,4.303,0.144,5.084,0.409c0.781,0.273,1.376,0.705,1.793,1.301c0.417,0.595,0.618,1.315,0.618,2.172
			C40.623,35.267,40.353,36.074,39.819,36.673z"/>
	</g>
	<g>
		<path fill="#88CAEC" d="M45.145,30.255c-0.929-1.213-2.252-2.073-3.985-2.574c1.232-0.557,2.199-1.391,2.912-2.502
			c0.717-1.103,1.073-2.328,1.073-3.658c0-1.224-0.281-2.331-0.868-3.321c-0.576-0.986-1.308-1.774-2.176-2.366
			c-0.872-0.599-1.858-0.986-2.965-1.175c-0.781-0.133-1.876-0.216-3.245-0.254v-4.202H31.17v4.176h-2.669h-0.315v-4.176h-4.725
			v4.176h-0.69h-4.35v4.724h4.35v18.936h-4.35v4.72h4.35h0.69v3.87h4.725v-3.87h0.315h2.669v3.87h4.722v-3.912
			c1.668-0.038,2.855-0.083,3.45-0.148c1.52-0.17,2.805-0.614,3.84-1.346c1.047-0.728,1.861-1.702,2.464-2.923
			c0.595-1.224,0.899-2.476,0.899-3.764C46.545,32.897,46.078,31.472,45.145,30.255z M31.792,19.101c2.697,0,4.331,0.034,4.9,0.099
			c0.952,0.114,1.672,0.447,2.157,1.001c0.485,0.538,0.732,1.259,0.732,2.131c0,0.918-0.281,1.661-0.842,2.218
			c-0.561,0.565-1.334,0.899-2.32,1.02c-0.542,0.064-1.93,0.099-4.161,0.099h-3.757v-6.566H31.792z M39.819,36.673
			c-0.538,0.599-1.224,0.978-2.081,1.134c-0.554,0.114-1.861,0.174-3.933,0.174h-5.304v-7.597h4.627
			c2.612,0,4.303,0.144,5.084,0.409c0.781,0.273,1.376,0.705,1.793,1.301c0.417,0.595,0.618,1.315,0.618,2.172
			C40.623,35.267,40.353,36.074,39.819,36.673z"/>
	</g>
</g>
<path fill="#5ECBEE" d="M30.416,0.252c-16.172,0-29.281,13.11-29.281,29.281s13.11,29.281,29.281,29.281s29.281-13.11,29.281-29.281
	S46.587,0.252,30.416,0.252z M30.416,54.748c-13.926,0-25.215-11.289-25.215-25.215S16.49,4.319,30.416,4.319
	c13.926,0,25.215,11.289,25.215,25.215S44.341,54.748,30.416,54.748z"/>
<g>
	<path fill="#88CAEC" d="M68.808,42.645c-0.266,0-0.495-0.096-0.688-0.289c-0.193-0.193-0.29-0.423-0.29-0.688V18.28
		c0-0.265,0.096-0.494,0.29-0.688c0.193-0.193,0.422-0.29,0.688-0.29h2.932c0.265,0,0.495,0.097,0.688,0.29
		c0.193,0.193,0.29,0.423,0.29,0.688v23.387c0,0.266-0.097,0.495-0.29,0.688c-0.193,0.193-0.423,0.289-0.688,0.289H68.808z"/>
	<path fill="#88CAEC" d="M97.951,17.303c0.265,0,0.494,0.097,0.688,0.29c0.193,0.193,0.29,0.423,0.29,0.688v2.57
		c0,0.266-0.097,0.495-0.29,0.688c-0.193,0.194-0.423,0.29-0.688,0.29h-6.517v19.839c0,0.266-0.097,0.495-0.29,0.688
		c-0.193,0.193-0.423,0.289-0.688,0.289h-2.933c-0.266,0-0.495-0.096-0.688-0.289c-0.193-0.193-0.29-0.423-0.29-0.688V21.828H80.03
		c-0.266,0-0.495-0.096-0.688-0.29c-0.193-0.193-0.29-0.422-0.29-0.688v-2.57c0-0.265,0.096-0.494,0.29-0.688
		c0.193-0.193,0.422-0.29,0.688-0.29H97.951z"/>
</g>
<g>
	<path fill="#FFFFFF" d="M117.191,17.301c3.017,0,5.31,0.7,6.879,2.1c1.569,1.4,2.354,3.344,2.354,5.829
		c0,1.762-0.405,3.265-1.213,4.508c-0.809,1.243-1.997,2.166-3.566,2.77l4.996,8.943c0.073,0.145,0.109,0.278,0.109,0.398
		c0,0.217-0.078,0.405-0.235,0.561c-0.157,0.158-0.344,0.235-0.561,0.235h-3.078c-0.483,0-0.839-0.114-1.068-0.344
		c-0.23-0.229-0.393-0.44-0.489-0.634l-4.743-8.436h-4.815v8.436c0,0.266-0.097,0.495-0.29,0.688
		c-0.194,0.193-0.423,0.29-0.688,0.29h-2.933c-0.266,0-0.495-0.096-0.688-0.29c-0.194-0.193-0.29-0.422-0.29-0.688V18.278
		c0-0.265,0.096-0.494,0.29-0.688c0.193-0.193,0.422-0.29,0.688-0.29H117.191z M111.76,28.706h5.25c1.376,0,2.474-0.241,3.294-0.724
		c0.821-0.482,1.231-1.399,1.231-2.751c0-1.352-0.411-2.257-1.231-2.716c-0.821-0.458-1.919-0.688-3.294-0.688h-5.25V28.706z"/>
	<path fill="#FFFFFF" d="M150.717,38.119c0.265,0,0.494,0.097,0.688,0.29c0.193,0.193,0.29,0.423,0.29,0.688v2.571
		c0,0.266-0.097,0.495-0.29,0.688c-0.193,0.193-0.423,0.29-0.688,0.29h-15.895c-0.266,0-0.495-0.096-0.688-0.29
		c-0.194-0.193-0.29-0.422-0.29-0.688V18.278c0-0.265,0.096-0.494,0.29-0.688c0.193-0.193,0.422-0.29,0.688-0.29h15.605
		c0.265,0,0.494,0.097,0.688,0.29c0.193,0.193,0.29,0.423,0.29,0.688v2.571c0,0.266-0.097,0.495-0.29,0.688
		c-0.193,0.193-0.423,0.29-0.688,0.29h-11.694v5.757h10.898c0.265,0,0.494,0.097,0.688,0.29c0.193,0.193,0.29,0.423,0.29,0.688
		v2.571c0,0.266-0.097,0.495-0.29,0.688c-0.193,0.193-0.423,0.29-0.688,0.29h-10.898v6.01H150.717z"/>
	<path fill="#FFFFFF" d="M170.811,17.301c0.386,0,0.675,0.103,0.869,0.308c0.192,0.206,0.362,0.513,0.507,0.923l8.871,22.882
		c0.024,0.072,0.036,0.157,0.036,0.253c0,0.266-0.097,0.495-0.29,0.688c-0.194,0.193-0.423,0.29-0.688,0.29h-2.607
		c-0.483,0-0.821-0.102-1.013-0.308c-0.194-0.205-0.326-0.404-0.398-0.597l-1.557-4.019h-11.441l-1.557,4.019
		c-0.072,0.194-0.205,0.393-0.398,0.597c-0.194,0.206-0.532,0.308-1.014,0.308h-2.607c-0.266,0-0.494-0.096-0.688-0.29
		c-0.194-0.193-0.289-0.422-0.289-0.688c0-0.096,0.011-0.181,0.036-0.253l8.871-22.882c0.145-0.41,0.314-0.718,0.507-0.923
		c0.193-0.205,0.483-0.308,0.869-0.308H170.811z M172.803,33.195l-3.982-10.319l-3.983,10.319H172.803z"/>
	<path fill="#FFFFFF" d="M203.939,38.119c0.266,0,0.495,0.097,0.688,0.29c0.193,0.193,0.289,0.423,0.289,0.688v2.571
		c0,0.266-0.096,0.495-0.289,0.688c-0.194,0.193-0.423,0.29-0.688,0.29h-15.858c-0.266,0-0.495-0.096-0.688-0.29
		c-0.194-0.193-0.29-0.422-0.29-0.688V18.278c0-0.265,0.096-0.494,0.29-0.688c0.192-0.193,0.422-0.29,0.688-0.29h2.933
		c0.265,0,0.495,0.097,0.688,0.29c0.193,0.193,0.29,0.423,0.29,0.688v19.841H203.939z"/>
	<path fill="#FFFFFF" d="M223.888,17.301c0.266,0,0.494,0.097,0.688,0.29c0.192,0.193,0.289,0.423,0.289,0.688v2.571
		c0,0.266-0.097,0.495-0.289,0.688c-0.194,0.193-0.423,0.29-0.688,0.29h-6.517v19.841c0,0.266-0.096,0.495-0.289,0.688
		c-0.194,0.193-0.423,0.29-0.688,0.29h-2.932c-0.266,0-0.495-0.096-0.688-0.29c-0.193-0.193-0.289-0.422-0.289-0.688V21.827h-6.517
		c-0.266,0-0.495-0.096-0.688-0.29c-0.193-0.193-0.289-0.422-0.289-0.688v-2.571c0-0.265,0.096-0.494,0.289-0.688
		c0.193-0.193,0.423-0.29,0.688-0.29H223.888z"/>
</g>
</svg>
